<mxfile host="app.diagrams.net" modified="2021-12-25T02:50:57.787Z" agent="5.0 (Windows NT 10.0; Win64; x64) AppleWebKit/537.36 (KHTML, like Gecko) Chrome/97.0.4692.20 Safari/537.36" etag="xmrhYa8CeHCEKoRaaWHh" version="16.1.0" type="github">
  <diagram name="Page-1" id="74e2e168-ea6b-b213-b513-2b3c1d86103e">
    <mxGraphModel dx="1863" dy="646" grid="0" gridSize="10" guides="1" tooltips="1" connect="1" arrows="1" fold="1" page="1" pageScale="1" pageWidth="1100" pageHeight="850" background="none" math="0" shadow="0">
      <root>
        <mxCell id="0" />
        <mxCell id="1" parent="0" />
        <mxCell id="Xg5g_UOtjmEHlMKweFGT-1" value="&lt;font style=&quot;vertical-align: inherit&quot;&gt;&lt;font style=&quot;vertical-align: inherit&quot;&gt;农村创业能力效率测度及其空间溢出效应&lt;/font&gt;&lt;/font&gt;" style="rounded=0;whiteSpace=wrap;html=1;" vertex="1" parent="1">
          <mxGeometry x="420" y="40" width="120" height="40" as="geometry" />
        </mxCell>
        <mxCell id="Xg5g_UOtjmEHlMKweFGT-3" value="" style="edgeStyle=elbowEdgeStyle;elbow=vertical;endArrow=classic;html=1;rounded=0;exitX=0.5;exitY=1;exitDx=0;exitDy=0;entryX=0.5;entryY=0;entryDx=0;entryDy=0;" edge="1" parent="1" source="Xg5g_UOtjmEHlMKweFGT-1" target="Xg5g_UOtjmEHlMKweFGT-5">
          <mxGeometry width="50" height="50" relative="1" as="geometry">
            <mxPoint x="560" y="230" as="sourcePoint" />
            <mxPoint x="720" y="110" as="targetPoint" />
            <Array as="points">
              <mxPoint x="710" y="100" />
              <mxPoint x="580" y="100" />
            </Array>
          </mxGeometry>
        </mxCell>
        <mxCell id="Xg5g_UOtjmEHlMKweFGT-4" value="" style="edgeStyle=elbowEdgeStyle;elbow=vertical;endArrow=classic;html=1;rounded=0;exitX=0.5;exitY=1;exitDx=0;exitDy=0;" edge="1" parent="1" source="Xg5g_UOtjmEHlMKweFGT-1">
          <mxGeometry width="50" height="50" relative="1" as="geometry">
            <mxPoint x="560" y="230" as="sourcePoint" />
            <mxPoint x="240" y="120" as="targetPoint" />
            <Array as="points">
              <mxPoint x="250" y="100" />
              <mxPoint x="380" y="100" />
              <mxPoint x="570" y="100" />
            </Array>
          </mxGeometry>
        </mxCell>
        <mxCell id="Xg5g_UOtjmEHlMKweFGT-5" value="&lt;font style=&quot;vertical-align: inherit&quot;&gt;&lt;font style=&quot;vertical-align: inherit&quot;&gt;其他分析方法研究&lt;/font&gt;&lt;/font&gt;" style="rounded=0;whiteSpace=wrap;html=1;" vertex="1" parent="1">
          <mxGeometry x="670" y="121" width="80" height="40" as="geometry" />
        </mxCell>
        <mxCell id="Xg5g_UOtjmEHlMKweFGT-6" value="&lt;font style=&quot;vertical-align: inherit&quot;&gt;&lt;font style=&quot;vertical-align: inherit&quot;&gt;创业创新指标体系建立&lt;/font&gt;&lt;/font&gt;" style="rounded=0;whiteSpace=wrap;html=1;" vertex="1" parent="1">
          <mxGeometry x="200" y="121" width="80" height="40" as="geometry" />
        </mxCell>
        <mxCell id="Xg5g_UOtjmEHlMKweFGT-7" value="" style="endArrow=classic;html=1;rounded=0;" edge="1" parent="1">
          <mxGeometry width="50" height="50" relative="1" as="geometry">
            <mxPoint x="400" y="101" as="sourcePoint" />
            <mxPoint x="400" y="121" as="targetPoint" />
            <Array as="points">
              <mxPoint x="400" y="111" />
            </Array>
          </mxGeometry>
        </mxCell>
        <mxCell id="Xg5g_UOtjmEHlMKweFGT-8" value="" style="endArrow=classic;html=1;rounded=0;" edge="1" parent="1">
          <mxGeometry width="50" height="50" relative="1" as="geometry">
            <mxPoint x="560" y="100" as="sourcePoint" />
            <mxPoint x="560" y="120" as="targetPoint" />
            <Array as="points">
              <mxPoint x="560" y="110" />
            </Array>
          </mxGeometry>
        </mxCell>
        <mxCell id="Xg5g_UOtjmEHlMKweFGT-9" value="数据包络分析方法研究" style="rounded=0;whiteSpace=wrap;html=1;" vertex="1" parent="1">
          <mxGeometry x="360" y="121" width="81" height="40" as="geometry" />
        </mxCell>
        <mxCell id="Xg5g_UOtjmEHlMKweFGT-10" value="&lt;font style=&quot;vertical-align: inherit&quot;&gt;&lt;font style=&quot;vertical-align: inherit&quot;&gt;空间计量模型研究&lt;/font&gt;&lt;/font&gt;" style="rounded=0;whiteSpace=wrap;html=1;" vertex="1" parent="1">
          <mxGeometry x="520" y="121" width="80" height="40" as="geometry" />
        </mxCell>
        <mxCell id="Xg5g_UOtjmEHlMKweFGT-15" style="edgeStyle=orthogonalEdgeStyle;rounded=0;orthogonalLoop=1;jettySize=auto;html=1;exitX=0.5;exitY=1;exitDx=0;exitDy=0;" edge="1" parent="1" source="Xg5g_UOtjmEHlMKweFGT-12">
          <mxGeometry relative="1" as="geometry">
            <mxPoint x="480" y="207.57140241350453" as="targetPoint" />
          </mxGeometry>
        </mxCell>
        <mxCell id="Xg5g_UOtjmEHlMKweFGT-12" value="" style="shape=partialRectangle;whiteSpace=wrap;html=1;bottom=1;right=1;left=1;top=0;fillColor=none;routingCenterX=-0.5;strokeWidth=1;" vertex="1" parent="1">
          <mxGeometry x="240" y="161" width="480" height="20" as="geometry" />
        </mxCell>
        <mxCell id="Xg5g_UOtjmEHlMKweFGT-13" value="" style="line;strokeWidth=1;html=1;rotation=-90;" vertex="1" parent="1">
          <mxGeometry x="391" y="165" width="20" height="10" as="geometry" />
        </mxCell>
        <mxCell id="Xg5g_UOtjmEHlMKweFGT-14" value="" style="line;strokeWidth=1;html=1;rotation=-90;" vertex="1" parent="1">
          <mxGeometry x="549" y="166" width="20" height="10" as="geometry" />
        </mxCell>
        <mxCell id="Xg5g_UOtjmEHlMKweFGT-27" style="edgeStyle=orthogonalEdgeStyle;rounded=0;orthogonalLoop=1;jettySize=auto;html=1;exitX=0.5;exitY=1;exitDx=0;exitDy=0;entryX=0.5;entryY=0;entryDx=0;entryDy=0;" edge="1" parent="1" source="Xg5g_UOtjmEHlMKweFGT-16" target="Xg5g_UOtjmEHlMKweFGT-32">
          <mxGeometry relative="1" as="geometry">
            <mxPoint x="430" y="340" as="targetPoint" />
            <Array as="points">
              <mxPoint x="360" y="320" />
              <mxPoint x="360" y="320" />
            </Array>
          </mxGeometry>
        </mxCell>
        <mxCell id="Xg5g_UOtjmEHlMKweFGT-16" value="研究方向探讨" style="rounded=0;whiteSpace=wrap;html=1;" vertex="1" parent="1">
          <mxGeometry x="320" y="223" width="81" height="40" as="geometry" />
        </mxCell>
        <mxCell id="Xg5g_UOtjmEHlMKweFGT-28" style="edgeStyle=orthogonalEdgeStyle;rounded=0;orthogonalLoop=1;jettySize=auto;html=1;exitX=0.5;exitY=1;exitDx=0;exitDy=0;entryX=0.5;entryY=0;entryDx=0;entryDy=0;" edge="1" parent="1" source="Xg5g_UOtjmEHlMKweFGT-17" target="Xg5g_UOtjmEHlMKweFGT-30">
          <mxGeometry relative="1" as="geometry">
            <mxPoint x="478" y="340" as="targetPoint" />
            <Array as="points">
              <mxPoint x="594" y="310" />
              <mxPoint x="495" y="310" />
            </Array>
          </mxGeometry>
        </mxCell>
        <mxCell id="Xg5g_UOtjmEHlMKweFGT-29" style="edgeStyle=orthogonalEdgeStyle;rounded=0;orthogonalLoop=1;jettySize=auto;html=1;exitX=0.5;exitY=1;exitDx=0;exitDy=0;entryX=0.5;entryY=0;entryDx=0;entryDy=0;" edge="1" parent="1" source="Xg5g_UOtjmEHlMKweFGT-17" target="Xg5g_UOtjmEHlMKweFGT-31">
          <mxGeometry relative="1" as="geometry">
            <mxPoint x="614" y="340" as="targetPoint" />
            <Array as="points">
              <mxPoint x="595" y="290" />
              <mxPoint x="595" y="290" />
            </Array>
          </mxGeometry>
        </mxCell>
        <mxCell id="Xg5g_UOtjmEHlMKweFGT-36" style="edgeStyle=orthogonalEdgeStyle;rounded=0;orthogonalLoop=1;jettySize=auto;html=1;exitX=0.5;exitY=1;exitDx=0;exitDy=0;entryX=0.5;entryY=0;entryDx=0;entryDy=0;" edge="1" parent="1" source="Xg5g_UOtjmEHlMKweFGT-17" target="Xg5g_UOtjmEHlMKweFGT-37">
          <mxGeometry relative="1" as="geometry">
            <mxPoint x="704" y="350" as="targetPoint" />
            <Array as="points">
              <mxPoint x="594" y="310" />
              <mxPoint x="695" y="310" />
            </Array>
          </mxGeometry>
        </mxCell>
        <mxCell id="Xg5g_UOtjmEHlMKweFGT-17" value="文献搜集" style="rounded=0;whiteSpace=wrap;html=1;" vertex="1" parent="1">
          <mxGeometry x="554" y="223" width="81" height="37" as="geometry" />
        </mxCell>
        <mxCell id="Xg5g_UOtjmEHlMKweFGT-18" value="" style="rounded=1;whiteSpace=wrap;html=1;absoluteArcSize=1;arcSize=14;strokeWidth=1;fillColor=none;" vertex="1" parent="1">
          <mxGeometry x="294" y="207" width="360" height="72" as="geometry" />
        </mxCell>
        <mxCell id="Xg5g_UOtjmEHlMKweFGT-30" value="学术期刊" style="rounded=0;whiteSpace=wrap;html=1;" vertex="1" parent="1">
          <mxGeometry x="454" y="340" width="81" height="40" as="geometry" />
        </mxCell>
        <mxCell id="Xg5g_UOtjmEHlMKweFGT-31" value="毕业论文" style="rounded=0;whiteSpace=wrap;html=1;" vertex="1" parent="1">
          <mxGeometry x="554" y="340" width="81" height="40" as="geometry" />
        </mxCell>
        <mxCell id="Xg5g_UOtjmEHlMKweFGT-32" value="请教老师" style="rounded=0;whiteSpace=wrap;html=1;" vertex="1" parent="1">
          <mxGeometry x="320" y="340" width="80" height="40" as="geometry" />
        </mxCell>
        <mxCell id="Xg5g_UOtjmEHlMKweFGT-37" value="官方公告" style="rounded=0;whiteSpace=wrap;html=1;" vertex="1" parent="1">
          <mxGeometry x="654" y="340" width="81" height="40" as="geometry" />
        </mxCell>
        <mxCell id="Xg5g_UOtjmEHlMKweFGT-87" style="edgeStyle=none;rounded=0;orthogonalLoop=1;jettySize=auto;html=1;exitX=0;exitY=0.5;exitDx=0;exitDy=0;exitPerimeter=0;" edge="1" parent="1" source="Xg5g_UOtjmEHlMKweFGT-40" target="Xg5g_UOtjmEHlMKweFGT-84">
          <mxGeometry relative="1" as="geometry" />
        </mxCell>
        <mxCell id="Xg5g_UOtjmEHlMKweFGT-40" value="" style="strokeWidth=1;html=1;shape=mxgraph.flowchart.annotation_1;align=left;pointerEvents=1;fillColor=none;rotation=-90;" vertex="1" parent="1">
          <mxGeometry x="510" y="225" width="35" height="343.5" as="geometry" />
        </mxCell>
        <mxCell id="Xg5g_UOtjmEHlMKweFGT-43" value="" style="line;strokeWidth=1;html=1;rotation=-90;" vertex="1" parent="1">
          <mxGeometry x="477.25" y="392" width="34.5" height="10" as="geometry" />
        </mxCell>
        <mxCell id="Xg5g_UOtjmEHlMKweFGT-44" value="" style="line;strokeWidth=1;html=1;rotation=-90;" vertex="1" parent="1">
          <mxGeometry x="577.25" y="392" width="34.5" height="10" as="geometry" />
        </mxCell>
        <mxCell id="Xg5g_UOtjmEHlMKweFGT-50" style="edgeStyle=none;rounded=0;orthogonalLoop=1;jettySize=auto;html=1;exitX=0.5;exitY=1;exitDx=0;exitDy=0;entryX=0.5;entryY=0;entryDx=0;entryDy=0;" edge="1" parent="1" source="Xg5g_UOtjmEHlMKweFGT-48" target="Xg5g_UOtjmEHlMKweFGT-49">
          <mxGeometry relative="1" as="geometry" />
        </mxCell>
        <mxCell id="Xg5g_UOtjmEHlMKweFGT-48" value="&lt;font style=&quot;vertical-align: inherit&quot;&gt;&lt;font style=&quot;vertical-align: inherit&quot;&gt;撰写毕业论文&lt;/font&gt;&lt;/font&gt;" style="rounded=0;whiteSpace=wrap;html=1;" vertex="1" parent="1">
          <mxGeometry x="487.5" y="640" width="80" height="40" as="geometry" />
        </mxCell>
        <mxCell id="Xg5g_UOtjmEHlMKweFGT-49" value="&lt;font style=&quot;vertical-align: inherit&quot;&gt;&lt;font style=&quot;vertical-align: inherit&quot;&gt;答辩&lt;/font&gt;&lt;/font&gt;" style="rounded=0;whiteSpace=wrap;html=1;" vertex="1" parent="1">
          <mxGeometry x="487.5" y="700" width="80" height="40" as="geometry" />
        </mxCell>
        <mxCell id="Xg5g_UOtjmEHlMKweFGT-78" style="edgeStyle=none;rounded=0;orthogonalLoop=1;jettySize=auto;html=1;exitX=1;exitY=0.5;exitDx=0;exitDy=0;entryX=0;entryY=0.5;entryDx=0;entryDy=0;" edge="1" parent="1" source="Xg5g_UOtjmEHlMKweFGT-56" target="Xg5g_UOtjmEHlMKweFGT-69">
          <mxGeometry relative="1" as="geometry" />
        </mxCell>
        <mxCell id="Xg5g_UOtjmEHlMKweFGT-56" value="相关分析方法研究" style="rounded=0;whiteSpace=wrap;html=1;" vertex="1" parent="1">
          <mxGeometry x="342" y="480" width="36" height="120" as="geometry" />
        </mxCell>
        <mxCell id="Xg5g_UOtjmEHlMKweFGT-61" style="edgeStyle=none;rounded=0;orthogonalLoop=1;jettySize=auto;html=1;exitX=1;exitY=0.5;exitDx=0;exitDy=0;entryX=0;entryY=0.5;entryDx=0;entryDy=0;" edge="1" parent="1" source="Xg5g_UOtjmEHlMKweFGT-57" target="Xg5g_UOtjmEHlMKweFGT-56">
          <mxGeometry relative="1" as="geometry" />
        </mxCell>
        <mxCell id="Xg5g_UOtjmEHlMKweFGT-57" value="文献整理" style="rounded=0;whiteSpace=wrap;html=1;" vertex="1" parent="1">
          <mxGeometry x="278" y="480" width="35" height="120" as="geometry" />
        </mxCell>
        <mxCell id="Xg5g_UOtjmEHlMKweFGT-79" style="edgeStyle=none;rounded=0;orthogonalLoop=1;jettySize=auto;html=1;exitX=1;exitY=0.5;exitDx=0;exitDy=0;" edge="1" parent="1" source="Xg5g_UOtjmEHlMKweFGT-69" target="Xg5g_UOtjmEHlMKweFGT-70">
          <mxGeometry relative="1" as="geometry" />
        </mxCell>
        <mxCell id="Xg5g_UOtjmEHlMKweFGT-69" value="变精度粗糙集方法研究" style="rounded=0;whiteSpace=wrap;html=1;" vertex="1" parent="1">
          <mxGeometry x="412" y="480" width="36" height="120" as="geometry" />
        </mxCell>
        <mxCell id="Xg5g_UOtjmEHlMKweFGT-80" style="edgeStyle=none;rounded=0;orthogonalLoop=1;jettySize=auto;html=1;exitX=1;exitY=0.5;exitDx=0;exitDy=0;entryX=0;entryY=0.5;entryDx=0;entryDy=0;" edge="1" parent="1" source="Xg5g_UOtjmEHlMKweFGT-70" target="Xg5g_UOtjmEHlMKweFGT-73">
          <mxGeometry relative="1" as="geometry" />
        </mxCell>
        <mxCell id="Xg5g_UOtjmEHlMKweFGT-70" value="指标筛选并确定最终指标体系" style="rounded=0;whiteSpace=wrap;html=1;" vertex="1" parent="1">
          <mxGeometry x="478" y="480" width="36" height="120" as="geometry" />
        </mxCell>
        <mxCell id="Xg5g_UOtjmEHlMKweFGT-83" style="edgeStyle=none;rounded=0;orthogonalLoop=1;jettySize=auto;html=1;exitX=1;exitY=0.5;exitDx=0;exitDy=0;entryX=0;entryY=0.5;entryDx=0;entryDy=0;" edge="1" parent="1" source="Xg5g_UOtjmEHlMKweFGT-72" target="Xg5g_UOtjmEHlMKweFGT-75">
          <mxGeometry relative="1" as="geometry" />
        </mxCell>
        <mxCell id="Xg5g_UOtjmEHlMKweFGT-72" value="数据预处理" style="rounded=0;whiteSpace=wrap;html=1;" vertex="1" parent="1">
          <mxGeometry x="683" y="480" width="36" height="120" as="geometry" />
        </mxCell>
        <mxCell id="Xg5g_UOtjmEHlMKweFGT-81" style="edgeStyle=none;rounded=0;orthogonalLoop=1;jettySize=auto;html=1;exitX=1;exitY=0.5;exitDx=0;exitDy=0;entryX=0;entryY=0.5;entryDx=0;entryDy=0;" edge="1" parent="1" source="Xg5g_UOtjmEHlMKweFGT-73" target="Xg5g_UOtjmEHlMKweFGT-74">
          <mxGeometry relative="1" as="geometry" />
        </mxCell>
        <mxCell id="Xg5g_UOtjmEHlMKweFGT-73" value="数据包络分析方法研究" style="rounded=0;whiteSpace=wrap;html=1;" vertex="1" parent="1">
          <mxGeometry x="547" y="480" width="36" height="120" as="geometry" />
        </mxCell>
        <mxCell id="Xg5g_UOtjmEHlMKweFGT-82" style="edgeStyle=none;rounded=0;orthogonalLoop=1;jettySize=auto;html=1;exitX=1;exitY=0.5;exitDx=0;exitDy=0;" edge="1" parent="1" source="Xg5g_UOtjmEHlMKweFGT-74" target="Xg5g_UOtjmEHlMKweFGT-72">
          <mxGeometry relative="1" as="geometry" />
        </mxCell>
        <mxCell id="Xg5g_UOtjmEHlMKweFGT-74" value="空间计量模型方法研究" style="rounded=0;whiteSpace=wrap;html=1;" vertex="1" parent="1">
          <mxGeometry x="612" y="480" width="36" height="120" as="geometry" />
        </mxCell>
        <mxCell id="Xg5g_UOtjmEHlMKweFGT-75" value="实证研究" style="rounded=0;whiteSpace=wrap;html=1;" vertex="1" parent="1">
          <mxGeometry x="747" y="480" width="36" height="120" as="geometry" />
        </mxCell>
        <mxCell id="Xg5g_UOtjmEHlMKweFGT-85" style="edgeStyle=none;rounded=0;orthogonalLoop=1;jettySize=auto;html=1;exitX=0.5;exitY=1;exitDx=0;exitDy=0;entryX=0.5;entryY=0;entryDx=0;entryDy=0;" edge="1" parent="1" source="Xg5g_UOtjmEHlMKweFGT-84" target="Xg5g_UOtjmEHlMKweFGT-48">
          <mxGeometry relative="1" as="geometry" />
        </mxCell>
        <mxCell id="Xg5g_UOtjmEHlMKweFGT-84" value="" style="rounded=1;whiteSpace=wrap;html=1;absoluteArcSize=1;arcSize=14;strokeWidth=1;fillColor=none;" vertex="1" parent="1">
          <mxGeometry x="232.5" y="460" width="590" height="160" as="geometry" />
        </mxCell>
      </root>
    </mxGraphModel>
  </diagram>
</mxfile>
